HIERARCHY
ROOT Zhanghao:Solving:Hips
{
	OFFSET 0.000000 0.000000 0.000000
	CHANNELS 6 Xposition Yposition Zposition Xrotation Yrotation Zrotation
	JOINT Zhanghao:Solving:Spine
	{
		OFFSET 0.000000 -9.563771 2.098718
		CHANNELS 6 Xposition Yposition Zposition Xrotation Yrotation Zrotation
		JOINT Zhanghao:Solving:Spine1
		{
			OFFSET 0.000000 -9.562875 1.686196
			CHANNELS 6 Xposition Yposition Zposition Xrotation Yrotation Zrotation
			JOINT Zhanghao:Solving:Spine2
			{
				OFFSET 0.000000 -9.673449 0.846319
				CHANNELS 6 Xposition Yposition Zposition Xrotation Yrotation Zrotation
				JOINT Zhanghao:Solving:Spine3
				{
					OFFSET 0.000000 -9.710396 0.000000
					CHANNELS 6 Xposition Yposition Zposition Xrotation Yrotation Zrotation
					JOINT Zhanghao:Solving:Neck
					{
						OFFSET 0.000000 -12.484798 -1.248478
						CHANNELS 6 Xposition Yposition Zposition Xrotation Yrotation Zrotation
						JOINT Zhanghao:Solving:Neck1
						{
							OFFSET 0.000000 -5.748112 -0.502893
							CHANNELS 6 Xposition Yposition Zposition Xrotation Yrotation Zrotation
							JOINT Zhanghao:Solving:Head
							{
								OFFSET 0.000000 -5.682407 -1.001961
								CHANNELS 6 Xposition Yposition Zposition Xrotation Yrotation Zrotation
								JOINT Zhanghao:Solving:HeadEnd
								{
									OFFSET 0.000000 -9.728077 0.000002
									CHANNELS 6 Xposition Yposition Zposition Xrotation Yrotation Zrotation
									End Site
									{
										OFFSET 0.000000 -9.728081 0.000002
									}
								}
							}
						}
					}
					JOINT Zhanghao:Solving:RightShoulder
					{
						OFFSET 0.000000 -8.917713 -5.270916
						CHANNELS 6 Xposition Yposition Zposition Xrotation Yrotation Zrotation
						JOINT Zhanghao:Solving:RightArm
						{
							OFFSET -18.341640 -0.000008 0.000000
							CHANNELS 6 Xposition Yposition Zposition Xrotation Yrotation Zrotation
							JOINT Zhanghao:Solving:RightForeArm
							{
								OFFSET -27.519978 -0.000008 0.000000
								CHANNELS 6 Xposition Yposition Zposition Xrotation Yrotation Zrotation
								JOINT Zhanghao:Solving:RightHand
								{
									OFFSET -22.582626 -0.000008 0.000000
									CHANNELS 6 Xposition Yposition Zposition Xrotation Yrotation Zrotation
									JOINT Zhanghao:Solving:RightHandThumb1
									{
										OFFSET -4.292824 2.781349 -3.192099
										CHANNELS 6 Xposition Yposition Zposition Xrotation Yrotation Zrotation
										End Site
										{
											OFFSET -6.150612 -0.000004 -6.207481
										}
									}
									JOINT Zhanghao:Solving:RightHandMiddle1
									{
										OFFSET -11.447525 -0.000004 0.073382
										CHANNELS 6 Xposition Yposition Zposition Xrotation Yrotation Zrotation
										End Site
										{
											OFFSET -8.738586 -0.000004 0.000000
										}
									}
								}
							}
						}
					}
					JOINT Zhanghao:Solving:LeftShoulder
					{
						OFFSET 0.000000 -8.917713 -5.270916
						CHANNELS 6 Xposition Yposition Zposition Xrotation Yrotation Zrotation
						JOINT Zhanghao:Solving:LeftArm
						{
							OFFSET 18.341640 -0.000008 0.000000
							CHANNELS 6 Xposition Yposition Zposition Xrotation Yrotation Zrotation
							JOINT Zhanghao:Solving:LeftForeArm
							{
								OFFSET 27.519978 -0.000008 0.000000
								CHANNELS 6 Xposition Yposition Zposition Xrotation Yrotation Zrotation
								JOINT Zhanghao:Solving:LeftHand
								{
									OFFSET 22.582626 -0.000008 0.000000
									CHANNELS 6 Xposition Yposition Zposition Xrotation Yrotation Zrotation
									JOINT Zhanghao:Solving:LeftHandThumb1
									{
										OFFSET 4.292824 2.781349 -3.192099
										CHANNELS 6 Xposition Yposition Zposition Xrotation Yrotation Zrotation
										End Site
										{
											OFFSET 6.150612 -0.000004 -6.207481
										}
									}
									JOINT Zhanghao:Solving:LeftHandMiddle1
									{
										OFFSET 11.447525 -0.000004 0.073382
										CHANNELS 6 Xposition Yposition Zposition Xrotation Yrotation Zrotation
										End Site
										{
											OFFSET 8.738586 -0.000004 0.000000
										}
									}
								}
							}
						}
					}
				}
			}
		}
	}
	JOINT Zhanghao:Solving:RightUpLeg
	{
		OFFSET -9.107882 0.000000 0.000000
		CHANNELS 6 Xposition Yposition Zposition Xrotation Yrotation Zrotation
		JOINT Zhanghao:Solving:RightLeg
		{
			OFFSET 0.000000 38.746075 -0.000006
			CHANNELS 6 Xposition Yposition Zposition Xrotation Yrotation Zrotation
			JOINT Zhanghao:Solving:RightFoot
			{
				OFFSET 0.000000 37.141575 -0.000006
				CHANNELS 6 Xposition Yposition Zposition Xrotation Yrotation Zrotation
				JOINT Zhanghao:Solving:RightForeFoot
				{
					OFFSET 0.000000 3.208229 -0.000000
					CHANNELS 6 Xposition Yposition Zposition Xrotation Yrotation Zrotation
					JOINT Zhanghao:Solving:RightToeBase
					{
						OFFSET 0.000000 0.000000 -12.564445
						CHANNELS 6 Xposition Yposition Zposition Xrotation Yrotation Zrotation
						JOINT Zhanghao:Solving:RightToeBaseEnd
						{
							OFFSET 0.000000 0.000000 -4.358174
							CHANNELS 6 Xposition Yposition Zposition Xrotation Yrotation Zrotation
							End Site
							{
								OFFSET 0.000000 -4.358177 0.000000
							}
						}
					}
				}
			}
		}
	}
	JOINT Zhanghao:Solving:LeftUpLeg
	{
		OFFSET 9.107882 0.000000 0.000000
		CHANNELS 6 Xposition Yposition Zposition Xrotation Yrotation Zrotation
		JOINT Zhanghao:Solving:LeftLeg
		{
			OFFSET 0.000000 38.746075 -0.000006
			CHANNELS 6 Xposition Yposition Zposition Xrotation Yrotation Zrotation
			JOINT Zhanghao:Solving:LeftFoot
			{
				OFFSET 0.000000 37.141575 -0.000006
				CHANNELS 6 Xposition Yposition Zposition Xrotation Yrotation Zrotation
				JOINT Zhanghao:Solving:LeftForeFoot
				{
					OFFSET 0.000000 3.208229 -0.000000
					CHANNELS 6 Xposition Yposition Zposition Xrotation Yrotation Zrotation
					JOINT Zhanghao:Solving:LeftToeBase
					{
						OFFSET 0.000000 0.000000 -12.564445
						CHANNELS 6 Xposition Yposition Zposition Xrotation Yrotation Zrotation
						JOINT Zhanghao:Solving:LeftToeBaseEnd
						{
							OFFSET 0.000000 0.000000 -4.448388
							CHANNELS 6 Xposition Yposition Zposition Xrotation Yrotation Zrotation
							End Site
							{
								OFFSET 0.000000 -4.448387 0.000000
							}
						}
					}
				}
			}
		}
	}
}
MOTION
Frames: 4
Frame Time: 0.041667
11.854843 -90.254913 -82.211685 81.650875 49.896393 4.870618 -0.000005 -9.563774 2.098722 21.972483 -0.952788 -2.422159 0.000011 -9.562869 1.686188 5.093430 -0.000589 -1.322737 0.000003 -9.673438 0.846306 0.566477 -3.749165 -5.106845 -0.000009 -9.710414 0.000006 -0.508044 -0.569949 -4.435518 -0.000013 -12.484793 -1.248489 -7.373256 -18.667909 4.723103 0.000009 -5.748088 -0.502874 1.807096 -27.411173 5.127241 -0.000005 -5.682388 -1.001947 3.172954 -2.139219 4.720281 0.000007 -9.728107 0.000002 0.000000 0.000000 0.000001 -0.000009 -8.917717 -5.270928 0.000002 7.793955 1.157935 -18.341627 -0.000007 -0.000007 7.567717 -22.849954 -67.040547 -27.519995 0.000003 -0.000017 -15.865425 -22.250444 -6.142271 -22.582615 -0.000011 -0.000008 0.740540 -5.636940 7.496647 -4.292829 2.781367 -3.192086 0.000001 -0.000005 -0.000006 -11.447526 -0.000004 0.073385 -0.000007 0.000001 -0.000001 -0.000008 -8.917721 -5.270927 -0.000005 -12.949237 -8.003631 18.341640 -0.000012 -0.000017 -53.378939 41.751382 49.527047 27.520010 0.000016 -0.000014 355.599155 50.907063 -356.581719 22.582615 -0.000014 0.000009 0.080270 -0.658653 6.948299 4.292835 2.781351 -3.192098 -0.000005 -0.000002 0.000004 11.447527 0.000000 0.073395 0.000002 0.000000 0.000002 -9.107890 0.000017 0.000004 0.308116 22.851889 7.680302 -0.000012 38.746063 -0.000017 -6.674042 -0.000002 -0.000001 0.000011 37.141590 0.000002 13.469612 24.809028 -11.162405 -0.000012 3.208221 -0.000002 -0.000000 -0.000001 -0.000000 -0.000001 0.000000 -12.564444 18.587774 -0.000000 0.000001 0.000032 -0.000008 -4.358182 -0.000001 -0.000001 0.000000 9.107880 -0.000004 0.000005 1.026474 -14.868572 -2.859639 0.000006 38.746090 -0.000003 -4.730837 0.000008 0.000001 -0.000006 37.141575 0.000002 11.958267 -21.688772 5.080057 -0.000007 3.208221 0.000002 0.000000 0.000001 -0.000000 -0.000001 0.000007 -12.564469 20.130010 -0.000001 0.000000 -0.000001 -0.000009 -4.448399 -0.000004 0.000000 0.000001 
11.822253 -90.317207 -82.212067 81.493132 49.734784 5.070696 0.000012 -9.563773 2.098729 21.940355 -0.966614 -2.452302 0.000004 -9.562873 1.686190 5.142043 -0.005335 -1.298679 0.000007 -9.673446 0.846324 0.666220 -3.773754 -5.184473 0.000004 -9.710397 -0.000004 -0.522560 -0.596444 -4.501304 0.000011 -12.484782 -1.248466 -7.390591 -18.591234 4.757626 -0.000005 -5.748102 -0.502876 1.782174 -27.384530 5.179036 -0.000000 -5.682395 -1.001971 3.141445 -2.140552 4.729239 0.000002 -9.728077 0.000002 0.000001 0.000000 0.000001 0.000004 -8.917679 -5.270902 -0.000006 7.814470 1.235445 -18.341640 -0.000016 -0.000019 7.462616 -22.859677 -67.047937 -27.519983 -0.000005 -0.000010 -15.861202 -22.319842 -6.158602 -22.582619 0.000015 -0.000002 0.736268 -5.675522 7.403886 -4.292821 2.781360 -3.192110 -0.000002 0.000012 -0.000006 -11.447540 -0.000006 0.073362 0.000008 -0.000001 0.000000 0.000000 -8.917690 -5.270894 -0.000005 -12.844590 -7.947393 18.341639 0.000002 -0.000007 -53.298879 42.381751 49.957288 27.519981 0.000004 -0.000010 356.924840 50.902012 -357.612531 22.582619 -0.000004 0.000000 0.117096 -0.920260 7.251507 4.292816 2.781371 -3.192103 0.000002 -0.000002 -0.000001 11.447523 0.000009 0.073383 0.000001 -0.000001 -0.000002 -9.107875 -0.000005 0.000016 0.425700 22.963899 7.565567 -0.000004 38.746067 -0.000005 -6.519187 -0.000003 -0.000001 0.000001 37.141579 -0.000006 13.179733 24.867421 -11.169525 0.000021 3.208221 0.000002 -0.000000 0.000000 0.000000 0.000009 0.000017 -12.564439 18.376153 0.000000 -0.000001 0.000020 -0.000007 -4.358171 0.000003 -0.000000 0.000000 9.107902 -0.000010 0.000008 1.094311 -14.730949 -2.995478 -0.000006 38.746071 -0.000017 -4.760423 -0.000004 -0.000001 0.000000 37.141602 0.000009 12.003540 -21.691830 5.153806 -0.000006 3.208221 0.000007 0.000000 -0.000001 -0.000000 -0.000002 -0.000009 -12.564463 20.160097 0.000000 -0.000000 0.000000 -0.000001 -4.448386 -0.000004 -0.000002 0.000001 
11.799260 -90.374443 -82.212311 81.342294 49.538792 5.247616 0.000006 -9.563779 2.098706 21.924014 -0.988632 -2.500199 -0.000012 -9.562856 1.686215 5.226389 -0.009800 -1.268568 0.000006 -9.673473 0.846317 0.747404 -3.773172 -5.266479 -0.000005 -9.710411 -0.000019 -0.564814 -0.611173 -4.542344 0.000012 -12.484792 -1.248489 -7.494901 -18.516054 4.770111 -0.000007 -5.748091 -0.502894 1.797950 -27.365424 5.217400 -0.000005 -5.682403 -1.001955 3.132717 -2.139593 4.739076 0.000002 -9.728077 0.000012 0.000000 0.000000 -0.000000 -0.000002 -8.917694 -5.270920 -0.000004 7.908395 1.286475 -18.341625 -0.000013 -0.000009 7.396978 -22.973804 -67.008213 -27.519970 -0.000000 -0.000016 -16.101035 -22.393175 -6.275341 -22.582647 -0.000029 0.000002 0.729957 -5.764147 7.229901 -4.292831 2.781351 -3.192101 0.000014 -0.000005 0.000000 -11.447518 -0.000024 0.073404 0.000009 -0.000001 -0.000001 -0.000001 -8.917698 -5.270919 -0.000005 -12.827076 -7.854150 18.341656 -0.000016 -0.000003 -53.053593 43.413147 50.228473 27.519989 0.000024 -0.000016 358.026331 50.767905 -358.470949 22.582609 -0.000006 0.000001 0.162043 -1.207687 7.642309 4.292829 2.781366 -3.192088 -0.000009 -0.000003 0.000006 11.447542 -0.000032 0.073391 -0.000004 0.000004 0.000003 -9.107887 0.000000 -0.000008 0.363487 23.547663 7.518067 0.000000 38.746090 -0.000007 -6.165939 0.000002 -0.000000 -0.000010 37.141575 -0.000006 12.744808 24.475752 -11.086522 -0.000001 3.208221 0.000005 -0.000000 0.000002 0.000001 -0.000005 0.000006 -12.564445 18.124318 -0.000001 -0.000001 0.000021 -0.000000 -4.358174 -0.000001 -0.000001 -0.000000 9.107895 -0.000005 -0.000008 1.150625 -14.627851 -3.105669 0.000011 38.746071 -0.000004 -4.780455 0.000002 -0.000000 -0.000011 37.141579 0.000003 12.051938 -21.626300 5.178576 -0.000003 3.208214 -0.000006 0.000000 -0.000002 -0.000000 -0.000002 0.000002 -12.564462 20.155661 -0.000001 0.000001 -0.000001 -0.000008 -4.448394 -0.000003 0.000002 -0.000001 
11.760146 -90.439575 -82.211044 81.190636 49.327288 5.441461 0.000010 -9.563766 2.098724 21.875549 -0.983576 -2.606490 0.000007 -9.562884 1.686177 5.308298 0.003775 -1.250696 -0.000009 -9.673447 0.846305 0.849311 -3.700516 -5.316134 -0.000002 -9.710402 0.000003 -0.600844 -0.583737 -4.479311 -0.000005 -12.484811 -1.248469 -7.516553 -18.556447 4.669841 -0.000005 -5.748137 -0.502894 1.822866 -27.352666 5.320666 -0.000007 -5.682408 -1.001957 3.099736 -2.141027 4.753982 0.000004 -9.728085 -0.000010 -0.000000 0.000000 0.000001 0.000013 -8.917721 -5.270912 -0.000003 7.786657 1.255307 -18.341652 0.000025 -0.000006 7.376351 -22.979943 -67.031627 -27.519999 -0.000004 0.000007 -16.161182 -22.505178 -6.329509 -22.582623 -0.000000 0.000002 0.726174 -5.778542 7.175073 -4.292793 2.781343 -3.192113 0.000002 0.000003 0.000001 -11.447517 -0.000004 0.073364 0.000005 0.000001 -0.000000 0.000016 -8.917728 -5.270917 -0.000005 -12.866259 -7.791601 18.341635 -0.000013 -0.000010 -52.494180 44.632902 50.181837 27.519983 -0.000003 -0.000012 358.873548 50.591621 -359.129571 22.582613 -0.000012 0.000002 0.220920 -1.516617 8.288517 4.292827 2.781347 -3.192107 -0.000002 0.000005 0.000005 11.447526 -0.000002 0.073379 0.000002 0.000003 0.000001 -9.107883 0.000006 0.000018 0.172027 24.612141 7.475389 0.000002 38.746067 -0.000006 -5.667281 -0.000004 -0.000002 -0.000013 37.141582 -0.000001 12.233244 23.613291 -10.876276 0.000038 3.208221 0.000007 0.000000 -0.000002 0.000000 -0.000017 -0.000002 -12.564445 17.923712 -0.000003 0.000001 0.000013 0.000000 -4.358168 0.000001 -0.000001 0.000000 9.107892 0.000007 0.000009 1.198016 -14.508206 -3.249639 0.000020 38.746082 -0.000012 -4.783437 0.000005 0.000000 0.000006 37.141602 -0.000018 12.081550 -21.573627 5.282178 0.000000 3.208221 -0.000018 0.000000 -0.000001 -0.000000 0.000001 -0.000004 -12.564463 20.200373 -0.000002 0.000001 -0.000000 -0.000007 -4.448375 0.000001 0.000000 0.000001 
